0
SECTION
2
HEADER
9
$INSUNITS
70
4
9
$ACADVER
1
AC1014
9
$HANDSEED
5
FFFF
0
ENDSEC
0
SECTION
2
TABLES
0
TABLE
2
VPORT
5
8
100
AcDbSymbolTable
0
ENDTAB
0
TABLE
2
LTYPE
5
5
100
AcDbSymbolTable
70
3
0
LTYPE
5
14
100
AcDbSymbolTableRecord
100
AcDbLinetypeTableRecord
2
BYBLOCK
70
0
0
LTYPE
5
15
100
AcDbSymbolTableRecord
100
AcDbLinetypeTableRecord
2
BYLAYER
70
0
0
LTYPE
5
16
100
AcDbSymbolTableRecord
100
AcDbLinetypeTableRecord
2
DASHED
70
0
3
Dashed __ __ __ __ __ __ __ __ __ __ __ __ __ _
72
65
73
2
40
0.75
49
0.5
74
0
49
-0.25
74
0
0
ENDTAB
0
TABLE
2
LAYER
5
2
100
AcDbSymbolTable
70
3
0
LAYER
5
50
100
AcDbSymbolTableRecord
100
AcDbLayerTableRecord
2
0
70
0
6
CONTINUOUS
0
LAYER
5
51
100
AcDbSymbolTableRecord
100
AcDbLayerTableRecord
2
CUTOUTS
70
0
62
1
6
CONTINUOUS
0
LAYER
5
52
100
AcDbSymbolTableRecord
100
AcDbLayerTableRecord
2
PERIMETER
70
0
62
5
6
CONTINUOUS
0
ENDTAB
0
TABLE
2
STYLE
5
3
100
AcDbSymbolTable
70
1
0
STYLE
5
11
100
AcDbSymbolTableRecord
100
AcDbTextStyleTableRecord
2
STANDARD
70
0
0
ENDTAB
0
TABLE
2
VIEW
5
6
100
AcDbSymbolTable
0
ENDTAB
0
TABLE
2
UCS
5
7
100
AcDbSymbolTable
0
ENDTAB
0
TABLE
2
APPID
5
9
100
AcDbSymbolTable
70
1
0
APPID
5
12
100
AcDbSymbolTableRecord
100
AcDbRegAppTableRecord
2
ACAD
70
0
0
ENDTAB
0
TABLE
2
DIMSTYLE
5
A
100
AcDbSymbolTable
0
ENDTAB
0
TABLE
2
BLOCK_RECORD
5
1
100
AcDbSymbolTable
70
2
0
BLOCK_RECORD
5
1F
100
AcDbSymbolTableRecord
100
AcDbBlockTableRecord
2
*MODEL_SPACE
0
BLOCK_RECORD
5
1B
100
AcDbSymbolTableRecord
100
AcDbBlockTableRecord
2
*PAPER_SPACE
0
ENDTAB
0
ENDSEC
0
SECTION
2
BLOCKS
0
BLOCK
5
20
100
AcDbEntity
100
AcDbBlockBegin
2
*MODEL_SPACE
0
ENDBLK
5
21
100
AcDbEntity
100
AcDbBlockEnd
0
BLOCK
5
1C
100
AcDbEntity
100
AcDbBlockBegin
2
*PAPER_SPACE
0
ENDBLK
5
1D
100
AcDbEntity
100
AcDbBlockEnd
0
ENDSEC
0
SECTION
2
ENTITIES
0
CIRCLE
5
100
100
AcDbEntity
8
CUTOUTS
100
AcDbCircle
10
-130.49999999999994
20
29.5
30
0
40
2.2499999999999964
210
0
220
0
230
1
0
CIRCLE
5
101
100
AcDbEntity
8
CUTOUTS
100
AcDbCircle
10
-189.49999999999991
20
-29.5
30
0
40
2.2500000000000142
210
0
220
0
230
1
0
CIRCLE
5
102
100
AcDbEntity
8
CUTOUTS
100
AcDbCircle
10
-189.49999999999991
20
29.5
30
0
40
2.2500000000000142
210
0
220
0
230
1
0
CIRCLE
5
103
100
AcDbEntity
8
CUTOUTS
100
AcDbCircle
10
-130.49999999999994
20
-29.500000000000007
30
0
40
2.2499999999999964
210
0
220
0
230
1
0
CIRCLE
5
104
100
AcDbEntity
8
CUTOUTS
100
AcDbCircle
10
52.500000000000142
20
-52.499999999999943
30
0
40
2.7500000000000036
210
0
220
0
230
1
0
CIRCLE
5
105
100
AcDbEntity
8
CUTOUTS
100
AcDbCircle
10
172.50000000000017
20
-52.499999999999986
30
0
40
2.7499999999999858
210
0
220
0
230
1
0
CIRCLE
5
106
100
AcDbEntity
8
CUTOUTS
100
AcDbCircle
10
67.500000000000128
20
52.499999999999964
30
0
40
2.7500000000000036
210
0
220
0
230
1
0
CIRCLE
5
107
100
AcDbEntity
8
CUTOUTS
100
AcDbCircle
10
-52.499999999999893
20
52.499999999999964
30
0
40
2.7500000000000036
210
0
220
0
230
1
0
CIRCLE
5
108
100
AcDbEntity
8
CUTOUTS
100
AcDbCircle
10
215.00000000000014
20
-55.000000000000014
30
0
40
2.7499999999999858
210
0
220
0
230
1
0
CIRCLE
5
109
100
AcDbEntity
8
CUTOUTS
100
AcDbCircle
10
7.1054273576010019e-14
20
95.000000000000028
30
0
40
2.75
210
0
220
0
230
1
0
CIRCLE
5
10A
100
AcDbEntity
8
CUTOUTS
100
AcDbCircle
10
-215
20
55.000000000000014
30
0
40
2.7499999999999858
210
0
220
0
230
1
0
CIRCLE
5
10B
100
AcDbEntity
8
CUTOUTS
100
AcDbCircle
10
-215
20
-54.999999999999986
30
0
40
2.7499999999999858
210
0
220
0
230
1
0
CIRCLE
5
10C
100
AcDbEntity
8
CUTOUTS
100
AcDbCircle
10
215.00000000000014
20
54.999999999999986
30
0
40
2.7499999999999858
210
0
220
0
230
1
0
CIRCLE
5
10D
100
AcDbEntity
8
CUTOUTS
100
AcDbCircle
10
7.1054273576010019e-14
20
-95
30
0
40
2.75
210
0
220
0
230
1
0
CIRCLE
5
10E
100
AcDbEntity
8
CUTOUTS
100
AcDbCircle
10
52.500000000000135
20
52.499999999999964
30
0
40
2.7500000000000036
210
0
220
0
230
1
0
CIRCLE
5
10F
100
AcDbEntity
8
CUTOUTS
100
AcDbCircle
10
172.50000000000017
20
52.499999999999986
30
0
40
2.7499999999999858
210
0
220
0
230
1
0
CIRCLE
5
110
100
AcDbEntity
8
CUTOUTS
100
AcDbCircle
10
67.500000000000114
20
-52.499999999999943
30
0
40
2.7500000000000036
210
0
220
0
230
1
0
CIRCLE
5
111
100
AcDbEntity
8
CUTOUTS
100
AcDbCircle
10
-52.499999999999893
20
-52.499999999999943
30
0
40
2.7500000000000036
210
0
220
0
230
1
0
CIRCLE
5
112
100
AcDbEntity
8
CUTOUTS
100
AcDbCircle
10
-99.999999999999929
20
1.2743429500045276e-14
30
0
40
11.999999999999993
210
0
220
0
230
1
0
CIRCLE
5
113
100
AcDbEntity
8
CUTOUTS
100
AcDbCircle
10
-159.99999999999994
20
1.5330731853084767e-14
30
0
40
20.999999999999996
210
0
220
0
230
1
0
LWPOLYLINE
5
114
100
AcDbEntity
8
CUTOUTS
100
AcDbPolyline
90
8
70
1
43
0.0
10
134
20
47.5
42
0.41421356237309503
10
130
20
43.5
10
129.99999999999997
20
-43.5
42
0.41421356237309503
10
134
20
-47.5
10
136
20
-47.5
42
0.41421356237309503
10
140
20
-43.5
10
140
20
43.5
42
0.41421356237309503
10
136
20
47.499999999999986
0
LWPOLYLINE
5
115
100
AcDbEntity
8
CUTOUTS
100
AcDbPolyline
90
8
70
1
43
0.0
10
76
20
-47.5
10
74
20
-47.5
42
-0.41421356237309503
10
70
20
-43.5
10
70
20
43.5
42
-0.41421356237309503
10
74
20
47.5
10
76
20
47.5
42
-0.41421356237309503
10
80
20
43.5
10
80
20
-43.5
42
-0.41421356237309503
0
LWPOLYLINE
5
116
100
AcDbEntity
8
CUTOUTS
100
AcDbPolyline
90
8
70
1
43
0.0
10
-0.99999999999999778
20
47.5
42
0.41421356237309515
10
-5.0000000000000036
20
43.5
10
-5
20
-43.5
42
0.41421356237309503
10
-0.99999999999999989
20
-47.5
10
0.99999999999999856
20
-47.5
42
0.41421356237309515
10
5.0000000000000036
20
-43.5
10
5
20
43.5
42
0.41421356237309503
10
0.99999999999999978
20
47.5
0
LWPOLYLINE
5
117
100
AcDbEntity
8
CUTOUTS
100
AcDbPolyline
90
8
70
1
43
0.0
10
-40
20
43.5
42
0.41421356237309503
10
-44
20
47.5
10
-46
20
47.5
42
0.41421356237309503
10
-50
20
43.5
10
-50
20
-43.5
42
0.41421356237309503
10
-46
20
-47.5
10
-44
20
-47.5
42
0.41421356237309503
10
-40
20
-43.5
0
LWPOLYLINE
5
118
100
AcDbEntity
8
CUTOUTS
100
AcDbPolyline
90
8
70
1
43
0.0
10
20
20
43.5
42
0.41421356237309503
10
16
20
47.5
10
14
20
47.5
42
0.41421356237309503
10
9.9999999999999964
20
43.5
10
9.9999999999999982
20
-43.5
42
0.41421356237309503
10
14
20
-47.5
10
16
20
-47.5
42
0.41421356237309503
10
20.000000000000004
20
-43.5
0
LWPOLYLINE
5
119
100
AcDbEntity
8
CUTOUTS
100
AcDbPolyline
90
8
70
1
43
0.0
10
89
20
47.5
10
91.000000000000014
20
47.499999999999986
42
-0.41421356237309503
10
95
20
43.5
10
95
20
-43.5
42
-0.41421356237309503
10
91
20
-47.5
10
88.999999999999986
20
-47.5
42
-0.41421356237309503
10
84.999999999999986
20
-43.5
10
85
20
43.5
42
-0.41421356237309503
0
LWPOLYLINE
5
11A
100
AcDbEntity
8
CUTOUTS
100
AcDbPolyline
90
8
70
1
43
0.0
10
155
20
43.5
10
155
20
-43.5
42
-0.41421356237309503
10
151
20
-47.5
10
149
20
-47.5
42
-0.41421356237309503
10
144.99999999999997
20
-43.5
10
145
20
43.5
42
-0.41421356237309503
10
149
20
47.5
10
151
20
47.499999999999986
42
-0.41421356237309503
0
LWPOLYLINE
5
11B
100
AcDbEntity
8
CUTOUTS
100
AcDbPolyline
90
8
70
1
43
0.0
10
119
20
47.5
10
121.00000000000001
20
47.499999999999986
42
-0.41421356237309503
10
125
20
43.5
10
125
20
-43.5
42
-0.41421356237309503
10
121
20
-47.5
10
118.99999999999999
20
-47.5
42
-0.41421356237309503
10
114.99999999999999
20
-43.5
10
115
20
43.5
42
-0.41421356237309503
0
LWPOLYLINE
5
11C
100
AcDbEntity
8
CUTOUTS
100
AcDbPolyline
90
8
70
1
43
0.0
10
50
20
43.5
42
0.41421356237309503
10
46
20
47.5
10
44
20
47.5
42
0.41421356237309503
10
40
20
43.5
10
40
20
-43.5
42
0.41421356237309503
10
44
20
-47.5
10
46
20
-47.5
42
0.41421356237309503
10
50
20
-43.5
0
LWPOLYLINE
5
11D
100
AcDbEntity
8
CUTOUTS
100
AcDbPolyline
90
8
70
1
43
0.0
10
-14
20
-47.5
10
-16
20
-47.5
42
-0.41421356237309503
10
-20
20
-43.5
10
-20.000000000000004
20
43.5
42
-0.41421356237309503
10
-16
20
47.5
10
-14
20
47.5
42
-0.41421356237309503
10
-10
20
43.5
10
-9.9999999999999964
20
-43.5
42
-0.41421356237309503
0
LWPOLYLINE
5
11E
100
AcDbEntity
8
CUTOUTS
100
AcDbPolyline
90
8
70
1
43
0.0
10
-25
20
43.5
10
-24.999999999999996
20
-43.5
42
-0.41421356237309503
10
-29
20
-47.5
10
-30.999999999999996
20
-47.5
42
-0.41421356237309503
10
-34.999999999999993
20
-43.5
10
-35.000000000000007
20
43.5
42
-0.41421356237309503
10
-31
20
47.5
10
-29.000000000000004
20
47.5
42
-0.41421356237309503
0
LWPOLYLINE
5
11F
100
AcDbEntity
8
CUTOUTS
100
AcDbPolyline
90
8
70
1
43
0.0
10
25.000000000000004
20
-43.5
10
24.999999999999996
20
43.5
42
-0.41421356237309503
10
29
20
47.5
10
30.999999999999996
20
47.5
42
-0.41421356237309503
10
35
20
43.5
10
35.000000000000007
20
-43.5
42
-0.41421356237309503
10
31
20
-47.5
10
29.000000000000004
20
-47.5
42
-0.41421356237309503
0
LWPOLYLINE
5
120
100
AcDbEntity
8
CUTOUTS
100
AcDbPolyline
90
8
70
1
43
0.0
10
104
20
47.5
10
106.00000000000001
20
47.499999999999986
42
-0.41421356237309503
10
110
20
43.5
10
110
20
-43.5
42
-0.41421356237309503
10
106
20
-47.5
10
103.99999999999999
20
-47.5
42
-0.41421356237309503
10
99.999999999999986
20
-43.5
10
100
20
43.5
42
-0.41421356237309503
0
LWPOLYLINE
5
121
100
AcDbEntity
8
CUTOUTS
100
AcDbPolyline
90
8
70
1
43
0.0
10
170
20
43.5
10
170
20
-43.5
42
-0.41421356237309503
10
166
20
-47.5
10
164
20
-47.5
42
-0.41421356237309503
10
159.99999999999997
20
-43.5
10
159.99999999999997
20
43.5
42
-0.41421356237309503
10
164
20
47.5
10
166
20
47.499999999999986
42
-0.41421356237309503
0
LWPOLYLINE
5
122
100
AcDbEntity
8
PERIMETER
100
AcDbPolyline
90
8
70
1
43
0.0
10
-230.00000000000003
20
107.00000000000003
10
-230
20
-107
42
0.41421356237308815
10
-227.00000000000003
20
-109.99999999999997
10
227.00000000000003
20
-110.00000000000003
42
0.4142135623730846
10
230
20
-107.00000000000003
10
230.00000000000006
20
107.00000000000003
42
0.41421356237308815
10
227.00000000000011
20
110
10
-227.00000000000003
20
110.00000000000003
42
0.41421356237308815
0
ENDSEC
0
SECTION
2
OBJECTS
0
DICTIONARY
5
C
100
AcDbDictionary
3
ACAD_GROUP
350
D
3
ACAD_MLINESTYLE
350
17
0
DICTIONARY
5
D
100
AcDbDictionary
0
DICTIONARY
5
1A
330
C
100
AcDbDictionary
0
DICTIONARY
5
17
100
AcDbDictionary
0
ENDSEC
0
EOF
