0
SECTION
2
HEADER
9
$INSUNITS
70
4
9
$ACADVER
1
AC1014
9
$HANDSEED
5
FFFF
0
ENDSEC
0
SECTION
2
TABLES
0
TABLE
2
VPORT
5
8
100
AcDbSymbolTable
0
ENDTAB
0
TABLE
2
LTYPE
5
5
100
AcDbSymbolTable
70
3
0
LTYPE
5
14
100
AcDbSymbolTableRecord
100
AcDbLinetypeTableRecord
2
BYBLOCK
70
0
0
LTYPE
5
15
100
AcDbSymbolTableRecord
100
AcDbLinetypeTableRecord
2
BYLAYER
70
0
0
LTYPE
5
16
100
AcDbSymbolTableRecord
100
AcDbLinetypeTableRecord
2
DASHED
70
0
3
Dashed __ __ __ __ __ __ __ __ __ __ __ __ __ _
72
65
73
2
40
0.75
49
0.5
74
0
49
-0.25
74
0
0
ENDTAB
0
TABLE
2
LAYER
5
2
100
AcDbSymbolTable
70
3
0
LAYER
5
50
100
AcDbSymbolTableRecord
100
AcDbLayerTableRecord
2
0
70
0
6
CONTINUOUS
0
LAYER
5
51
100
AcDbSymbolTableRecord
100
AcDbLayerTableRecord
2
CUTOUTS
70
0
62
1
6
CONTINUOUS
0
LAYER
5
52
100
AcDbSymbolTableRecord
100
AcDbLayerTableRecord
2
PERIMETER
70
0
62
5
6
CONTINUOUS
0
ENDTAB
0
TABLE
2
STYLE
5
3
100
AcDbSymbolTable
70
1
0
STYLE
5
11
100
AcDbSymbolTableRecord
100
AcDbTextStyleTableRecord
2
STANDARD
70
0
0
ENDTAB
0
TABLE
2
VIEW
5
6
100
AcDbSymbolTable
0
ENDTAB
0
TABLE
2
UCS
5
7
100
AcDbSymbolTable
0
ENDTAB
0
TABLE
2
APPID
5
9
100
AcDbSymbolTable
70
1
0
APPID
5
12
100
AcDbSymbolTableRecord
100
AcDbRegAppTableRecord
2
ACAD
70
0
0
ENDTAB
0
TABLE
2
DIMSTYLE
5
A
100
AcDbSymbolTable
0
ENDTAB
0
TABLE
2
BLOCK_RECORD
5
1
100
AcDbSymbolTable
70
2
0
BLOCK_RECORD
5
1F
100
AcDbSymbolTableRecord
100
AcDbBlockTableRecord
2
*MODEL_SPACE
0
BLOCK_RECORD
5
1B
100
AcDbSymbolTableRecord
100
AcDbBlockTableRecord
2
*PAPER_SPACE
0
ENDTAB
0
ENDSEC
0
SECTION
2
BLOCKS
0
BLOCK
5
20
100
AcDbEntity
100
AcDbBlockBegin
2
*MODEL_SPACE
0
ENDBLK
5
21
100
AcDbEntity
100
AcDbBlockEnd
0
BLOCK
5
1C
100
AcDbEntity
100
AcDbBlockBegin
2
*PAPER_SPACE
0
ENDBLK
5
1D
100
AcDbEntity
100
AcDbBlockEnd
0
ENDSEC
0
SECTION
2
ENTITIES
0
CIRCLE
5
100
100
AcDbEntity
8
CUTOUTS
100
AcDbCircle
10
262.5001044222555
20
-157.5
30
0
40
3.2999999999999829
210
0
220
0
230
1
0
CIRCLE
5
101
100
AcDbEntity
8
CUTOUTS
100
AcDbCircle
10
237.50010442225545
20
-17.000000000000021
30
0
40
3.2999999999999829
210
0
220
0
230
1
0
CIRCLE
5
102
100
AcDbEntity
8
CUTOUTS
100
AcDbCircle
10
262.50010442225562
20
-464.9999999996345
30
0
40
3.2999999999999829
210
0
220
0
230
1
0
CIRCLE
5
103
100
AcDbEntity
8
CUTOUTS
100
AcDbCircle
10
262.50010442225539
20
150
30
0
40
3.2999999999999829
210
0
220
0
230
1
0
CIRCLE
5
104
100
AcDbEntity
8
CUTOUTS
100
AcDbCircle
10
262.50010442225539
20
135
30
0
40
3.2999999999999829
210
0
220
0
230
1
0
CIRCLE
5
105
100
AcDbEntity
8
CUTOUTS
100
AcDbCircle
10
262.50010442225562
20
-479.9999999996345
30
0
40
3.2999999999999829
210
0
220
0
230
1
0
CIRCLE
5
106
100
AcDbEntity
8
CUTOUTS
100
AcDbCircle
10
237.50010442225545
20
-106.00000000000001
30
0
40
3.2999999999999829
210
0
220
0
230
1
0
CIRCLE
5
107
100
AcDbEntity
8
CUTOUTS
100
AcDbCircle
10
262.5001044222555
20
-172.5
30
0
40
3.2999999999999829
210
0
220
0
230
1
0
CIRCLE
5
108
100
AcDbEntity
8
CUTOUTS
100
AcDbCircle
10
-262.5001044222555
20
-157.5
30
0
40
3.2999999999999829
210
0
220
0
230
1
0
CIRCLE
5
109
100
AcDbEntity
8
CUTOUTS
100
AcDbCircle
10
-237.50010442225545
20
-17.000000000000021
30
0
40
3.2999999999999829
210
0
220
0
230
1
0
CIRCLE
5
10A
100
AcDbEntity
8
CUTOUTS
100
AcDbCircle
10
-262.50010442225562
20
-464.9999999996345
30
0
40
3.2999999999999829
210
0
220
0
230
1
0
CIRCLE
5
10B
100
AcDbEntity
8
CUTOUTS
100
AcDbCircle
10
-262.50010442225539
20
150
30
0
40
3.2999999999999829
210
0
220
0
230
1
0
CIRCLE
5
10C
100
AcDbEntity
8
CUTOUTS
100
AcDbCircle
10
-262.50010442225539
20
135
30
0
40
3.2999999999999829
210
0
220
0
230
1
0
CIRCLE
5
10D
100
AcDbEntity
8
CUTOUTS
100
AcDbCircle
10
-262.50010442225562
20
-479.9999999996345
30
0
40
3.2999999999999829
210
0
220
0
230
1
0
CIRCLE
5
10E
100
AcDbEntity
8
CUTOUTS
100
AcDbCircle
10
-237.50010442225545
20
-106.00000000000001
30
0
40
3.2999999999999829
210
0
220
0
230
1
0
CIRCLE
5
10F
100
AcDbEntity
8
CUTOUTS
100
AcDbCircle
10
-262.5001044222555
20
-172.5
30
0
40
3.2999999999999829
210
0
220
0
230
1
0
LWPOLYLINE
5
110
100
AcDbEntity
8
PERIMETER
100
AcDbPolyline
90
32
70
1
43
0.0
10
270.20721120344297
20
-503.4999999996341
10
298.00010388478893
20
-503.4999999996341
42
0.41421360735032742
10
300.00010388478881
20
-501.49999969251036
10
300.00000053746754
20
171.50000030712462
42
0.41421351739576001
10
298.00000053746754
20
173.50000000000028
10
270.20710678118485
20
173.50000000000034
42
-0.19891236737807796
10
268.79289321882032
20
174.08578643761865
10
209.08578643690564
20
233.79289321880685
42
-0.19891236738123802
10
208.49999999927013
20
235.20710678118854
10
208.49999999927013
20
263.00000000000017
42
0.41421356237309503
10
206.49999999927016
20
265.00000000000017
10
-206.49999999927022
20
264.99999999999977
42
0.41421356237308982
10
-208.49999999927019
20
262.99999999999977
10
-208.4999999992701
20
235.20710678118834
42
-0.19891236738124127
10
-209.08578643690564
20
233.79289321880663
10
-268.79289321882027
20
174.08578643761837
42
-0.19891236737807796
10
-270.20710678118473
20
173.50000000000006
10
-298.00000053746743
20
173.50000000000009
42
0.41421351739577561
10
-300.00000053746737
20
171.50000030712437
10
-300.00010388478807
20
-501.49999969251013
42
0.41421360735037943
10
-298.00010388478813
20
-503.49999999963444
10
-270.20721120344206
20
-503.4999999996345
42
-0.19891236737965801
10
-268.79299764106895
20
-504.08578643726145
10
-209.08589085951797
20
-563.79289321881345
42
-0.19891236737966123
10
-208.50010442189102
20
-565.20710678118655
10
-208.50010442189102
20
-569.5
42
0.41421356237307422
10
-206.50010442189108
20
-571.49999999999989
10
206.50010442189193
20
-571.5
42
0.41421356237307422
10
208.50010442189193
20
-569.5
10
208.5001044218919
20
-565.20710678118644
42
-0.19891236737965476
10
209.08589085951883
20
-563.79289321881333
10
268.79299764106986
20
-504.08578643726094
42
-0.19891236737965476
0
ENDSEC
0
SECTION
2
OBJECTS
0
DICTIONARY
5
C
100
AcDbDictionary
3
ACAD_GROUP
350
D
3
ACAD_MLINESTYLE
350
17
0
DICTIONARY
5
D
100
AcDbDictionary
0
DICTIONARY
5
1A
330
C
100
AcDbDictionary
0
DICTIONARY
5
17
100
AcDbDictionary
0
ENDSEC
0
EOF
