0
SECTION
2
HEADER
9
$INSUNITS
70
4
9
$ACADVER
1
AC1014
9
$HANDSEED
5
FFFF
0
ENDSEC
0
SECTION
2
TABLES
0
TABLE
2
VPORT
5
8
100
AcDbSymbolTable
0
ENDTAB
0
TABLE
2
LTYPE
5
5
100
AcDbSymbolTable
70
3
0
LTYPE
5
14
100
AcDbSymbolTableRecord
100
AcDbLinetypeTableRecord
2
BYBLOCK
70
0
0
LTYPE
5
15
100
AcDbSymbolTableRecord
100
AcDbLinetypeTableRecord
2
BYLAYER
70
0
0
LTYPE
5
16
100
AcDbSymbolTableRecord
100
AcDbLinetypeTableRecord
2
DASHED
70
0
3
Dashed __ __ __ __ __ __ __ __ __ __ __ __ __ _
72
65
73
2
40
0.75
49
0.5
74
0
49
-0.25
74
0
0
ENDTAB
0
TABLE
2
LAYER
5
2
100
AcDbSymbolTable
70
3
0
LAYER
5
50
100
AcDbSymbolTableRecord
100
AcDbLayerTableRecord
2
0
70
0
6
CONTINUOUS
0
LAYER
5
51
100
AcDbSymbolTableRecord
100
AcDbLayerTableRecord
2
CUTOUTS
70
0
62
1
6
CONTINUOUS
0
LAYER
5
52
100
AcDbSymbolTableRecord
100
AcDbLayerTableRecord
2
PERIMETER
70
0
62
5
6
CONTINUOUS
0
ENDTAB
0
TABLE
2
STYLE
5
3
100
AcDbSymbolTable
70
1
0
STYLE
5
11
100
AcDbSymbolTableRecord
100
AcDbTextStyleTableRecord
2
STANDARD
70
0
0
ENDTAB
0
TABLE
2
VIEW
5
6
100
AcDbSymbolTable
0
ENDTAB
0
TABLE
2
UCS
5
7
100
AcDbSymbolTable
0
ENDTAB
0
TABLE
2
APPID
5
9
100
AcDbSymbolTable
70
1
0
APPID
5
12
100
AcDbSymbolTableRecord
100
AcDbRegAppTableRecord
2
ACAD
70
0
0
ENDTAB
0
TABLE
2
DIMSTYLE
5
A
100
AcDbSymbolTable
0
ENDTAB
0
TABLE
2
BLOCK_RECORD
5
1
100
AcDbSymbolTable
70
2
0
BLOCK_RECORD
5
1F
100
AcDbSymbolTableRecord
100
AcDbBlockTableRecord
2
*MODEL_SPACE
0
BLOCK_RECORD
5
1B
100
AcDbSymbolTableRecord
100
AcDbBlockTableRecord
2
*PAPER_SPACE
0
ENDTAB
0
ENDSEC
0
SECTION
2
BLOCKS
0
BLOCK
5
20
100
AcDbEntity
100
AcDbBlockBegin
2
*MODEL_SPACE
0
ENDBLK
5
21
100
AcDbEntity
100
AcDbBlockEnd
0
BLOCK
5
1C
100
AcDbEntity
100
AcDbBlockBegin
2
*PAPER_SPACE
0
ENDBLK
5
1D
100
AcDbEntity
100
AcDbBlockEnd
0
ENDSEC
0
SECTION
2
ENTITIES
0
CIRCLE
5
100
100
AcDbEntity
8
CUTOUTS
100
AcDbCircle
10
212.49994679057903
20
-139.00000000000003
30
0
40
3.2999999999999829
210
0
220
0
230
1
0
CIRCLE
5
101
100
AcDbEntity
8
CUTOUTS
100
AcDbCircle
10
187.49994679057889
20
-17.000000000000057
30
0
40
3.2999999999999829
210
0
220
0
230
1
0
CIRCLE
5
102
100
AcDbEntity
8
CUTOUTS
100
AcDbCircle
10
212.49994679057903
20
-364.99999999991815
30
0
40
3.2999999999999829
210
0
220
0
230
1
0
CIRCLE
5
103
100
AcDbEntity
8
CUTOUTS
100
AcDbCircle
10
212.49994679057897
20
149.99999999999997
30
0
40
3.2999999999999829
210
0
220
0
230
1
0
CIRCLE
5
104
100
AcDbEntity
8
CUTOUTS
100
AcDbCircle
10
212.49994679057897
20
134.99999999999997
30
0
40
3.2999999999999829
210
0
220
0
230
1
0
CIRCLE
5
105
100
AcDbEntity
8
CUTOUTS
100
AcDbCircle
10
212.49994679057903
20
-379.99999999991815
30
0
40
3.2999999999999829
210
0
220
0
230
1
0
CIRCLE
5
106
100
AcDbEntity
8
CUTOUTS
100
AcDbCircle
10
187.49994679057889
20
-106.00000000000006
30
0
40
3.2999999999999829
210
0
220
0
230
1
0
CIRCLE
5
107
100
AcDbEntity
8
CUTOUTS
100
AcDbCircle
10
212.49994679057903
20
-154.00000000000003
30
0
40
3.2999999999999829
210
0
220
0
230
1
0
CIRCLE
5
108
100
AcDbEntity
8
CUTOUTS
100
AcDbCircle
10
-212.49994679057903
20
-139.00000000000003
30
0
40
3.2999999999999829
210
0
220
0
230
1
0
CIRCLE
5
109
100
AcDbEntity
8
CUTOUTS
100
AcDbCircle
10
-187.49994679057889
20
-17.000000000000057
30
0
40
3.2999999999999829
210
0
220
0
230
1
0
CIRCLE
5
10A
100
AcDbEntity
8
CUTOUTS
100
AcDbCircle
10
-212.49994679057903
20
-364.99999999991815
30
0
40
3.2999999999999829
210
0
220
0
230
1
0
CIRCLE
5
10B
100
AcDbEntity
8
CUTOUTS
100
AcDbCircle
10
-212.49994679057897
20
149.99999999999997
30
0
40
3.2999999999999829
210
0
220
0
230
1
0
CIRCLE
5
10C
100
AcDbEntity
8
CUTOUTS
100
AcDbCircle
10
-212.49994679057897
20
134.99999999999997
30
0
40
3.2999999999999829
210
0
220
0
230
1
0
CIRCLE
5
10D
100
AcDbEntity
8
CUTOUTS
100
AcDbCircle
10
-212.49994679057903
20
-379.99999999991815
30
0
40
3.2999999999999829
210
0
220
0
230
1
0
CIRCLE
5
10E
100
AcDbEntity
8
CUTOUTS
100
AcDbCircle
10
-187.49994679057889
20
-106.00000000000006
30
0
40
3.2999999999999829
210
0
220
0
230
1
0
CIRCLE
5
10F
100
AcDbEntity
8
CUTOUTS
100
AcDbCircle
10
-212.49994679057903
20
-154.00000000000003
30
0
40
3.2999999999999829
210
0
220
0
230
1
0
LWPOLYLINE
5
110
100
AcDbEntity
8
PERIMETER
100
AcDbPolyline
90
32
70
1
43
0.0
10
159.08573322812578
20
-463.79289321881333
10
218.79284000943346
20
-404.08578643750434
42
-0.19891236737966123
10
220.2070535718066
20
-403.49999999987739
10
247.99994711171109
20
-403.49999999987745
42
0.41421353550298751
10
249.99994711171115
20
-401.500000183358
10
249.99999967890898
20
171.49999981651968
42
0.41421358924322388
10
247.99999967890898
20
173.50000000000023
10
220.20710678118593
20
173.50000000000023
42
-0.19891236737912918
10
218.79289321881572
20
174.08578643762425
10
159.08578643738616
20
233.79289321881134
42
-0.19891236738018198
10
158.4999999997564
20
235.20710678118729
10
158.49999999975637
20
263.00000000000011
42
0.41421356237309764
10
156.49999999975637
20
265.00000000000006
10
-156.49999999975637
20
264.99999999999989
42
0.41421356237310025
10
-158.49999999975637
20
262.99999999999989
10
-158.49999999975637
20
235.20710678118715
42
-0.19891236738018683
10
-159.08578643738616
20
233.79289321881117
10
-218.79289321881561
20
174.08578643762408
42
-0.19891236737912918
10
-220.20710678118581
20
173.50000000000006
10
-247.99999967890892
20
173.5
42
0.4142135892432291
10
-249.99999967890889
20
171.49999981651942
10
-249.99994711171053
20
-401.50000018335834
42
0.41421353550298229
10
-247.99994711171053
20
-403.49999999987767
10
-220.207053571806
20
-403.49999999987773
42
-0.19891236737966123
10
-218.79284000943287
20
-404.08578643750468
10
-159.08573322812509
20
-463.79289321881345
42
-0.19891236737965801
10
-158.49994679049817
20
-465.20710678118655
10
-158.49994679049817
20
-469.49999999999994
42
0.41421356237307422
10
-156.4999467904982
20
-471.49999999999989
10
156.49994679049888
20
-471.5
42
0.41421356237307422
10
158.49994679049894
20
-469.49999999999994
10
158.49994679049888
20
-465.20710678118638
42
-0.19891236737965801
0
ENDSEC
0
SECTION
2
OBJECTS
0
DICTIONARY
5
C
100
AcDbDictionary
3
ACAD_GROUP
350
D
3
ACAD_MLINESTYLE
350
17
0
DICTIONARY
5
D
100
AcDbDictionary
0
DICTIONARY
5
1A
330
C
100
AcDbDictionary
0
DICTIONARY
5
17
100
AcDbDictionary
0
ENDSEC
0
EOF
