0
SECTION
2
HEADER
9
$INSUNITS
70
4
9
$ACADVER
1
AC1014
9
$HANDSEED
5
FFFF
0
ENDSEC
0
SECTION
2
TABLES
0
TABLE
2
VPORT
5
8
100
AcDbSymbolTable
0
ENDTAB
0
TABLE
2
LTYPE
5
5
100
AcDbSymbolTable
70
3
0
LTYPE
5
14
100
AcDbSymbolTableRecord
100
AcDbLinetypeTableRecord
2
BYBLOCK
70
0
0
LTYPE
5
15
100
AcDbSymbolTableRecord
100
AcDbLinetypeTableRecord
2
BYLAYER
70
0
0
LTYPE
5
16
100
AcDbSymbolTableRecord
100
AcDbLinetypeTableRecord
2
DASHED
70
0
3
Dashed __ __ __ __ __ __ __ __ __ __ __ __ __ _
72
65
73
2
40
0.75
49
0.5
74
0
49
-0.25
74
0
0
ENDTAB
0
TABLE
2
LAYER
5
2
100
AcDbSymbolTable
70
3
0
LAYER
5
50
100
AcDbSymbolTableRecord
100
AcDbLayerTableRecord
2
0
70
0
6
CONTINUOUS
0
LAYER
5
51
100
AcDbSymbolTableRecord
100
AcDbLayerTableRecord
2
CUTOUTS
70
0
62
1
6
CONTINUOUS
0
LAYER
5
52
100
AcDbSymbolTableRecord
100
AcDbLayerTableRecord
2
PERIMETER
70
0
62
5
6
CONTINUOUS
0
ENDTAB
0
TABLE
2
STYLE
5
3
100
AcDbSymbolTable
70
1
0
STYLE
5
11
100
AcDbSymbolTableRecord
100
AcDbTextStyleTableRecord
2
STANDARD
70
0
0
ENDTAB
0
TABLE
2
VIEW
5
6
100
AcDbSymbolTable
0
ENDTAB
0
TABLE
2
UCS
5
7
100
AcDbSymbolTable
0
ENDTAB
0
TABLE
2
APPID
5
9
100
AcDbSymbolTable
70
1
0
APPID
5
12
100
AcDbSymbolTableRecord
100
AcDbRegAppTableRecord
2
ACAD
70
0
0
ENDTAB
0
TABLE
2
DIMSTYLE
5
A
100
AcDbSymbolTable
0
ENDTAB
0
TABLE
2
BLOCK_RECORD
5
1
100
AcDbSymbolTable
70
2
0
BLOCK_RECORD
5
1F
100
AcDbSymbolTableRecord
100
AcDbBlockTableRecord
2
*MODEL_SPACE
0
BLOCK_RECORD
5
1B
100
AcDbSymbolTableRecord
100
AcDbBlockTableRecord
2
*PAPER_SPACE
0
ENDTAB
0
ENDSEC
0
SECTION
2
BLOCKS
0
BLOCK
5
20
100
AcDbEntity
100
AcDbBlockBegin
2
*MODEL_SPACE
0
ENDBLK
5
21
100
AcDbEntity
100
AcDbBlockEnd
0
BLOCK
5
1C
100
AcDbEntity
100
AcDbBlockBegin
2
*PAPER_SPACE
0
ENDBLK
5
1D
100
AcDbEntity
100
AcDbBlockEnd
0
ENDSEC
0
SECTION
2
ENTITIES
0
CIRCLE
5
100
100
AcDbEntity
8
CUTOUTS
100
AcDbCircle
10
162.49996662050097
20
89.999999999999943
30
0
40
3.2999999999999829
210
0
220
0
230
1
0
CIRCLE
5
101
100
AcDbEntity
8
CUTOUTS
100
AcDbCircle
10
137.49996662050091
20
-12.00000000000006
30
0
40
3.3000000000000007
210
0
220
0
230
1
0
CIRCLE
5
102
100
AcDbEntity
8
CUTOUTS
100
AcDbCircle
10
162.49996662050094
20
-269.99999999997897
30
0
40
3.2999999999999829
210
0
220
0
230
1
0
CIRCLE
5
103
100
AcDbEntity
8
CUTOUTS
100
AcDbCircle
10
162.49996662050094
20
-284.99999999997897
30
0
40
3.2999999999999829
210
0
220
0
230
1
0
CIRCLE
5
104
100
AcDbEntity
8
CUTOUTS
100
AcDbCircle
10
137.49996662050091
20
-101.00000000000006
30
0
40
3.3000000000000007
210
0
220
0
230
1
0
CIRCLE
5
105
100
AcDbEntity
8
CUTOUTS
100
AcDbCircle
10
162.49996662050097
20
104.99999999999994
30
0
40
3.2999999999999829
210
0
220
0
230
1
0
CIRCLE
5
106
100
AcDbEntity
8
CUTOUTS
100
AcDbCircle
10
-162.49996662050097
20
89.999999999999943
30
0
40
3.3000000000000007
210
0
220
0
230
1
0
CIRCLE
5
107
100
AcDbEntity
8
CUTOUTS
100
AcDbCircle
10
-137.49996662050091
20
-12.00000000000006
30
0
40
3.3000000000000007
210
0
220
0
230
1
0
CIRCLE
5
108
100
AcDbEntity
8
CUTOUTS
100
AcDbCircle
10
-162.49996662050094
20
-269.99999999997897
30
0
40
3.3000000000000007
210
0
220
0
230
1
0
CIRCLE
5
109
100
AcDbEntity
8
CUTOUTS
100
AcDbCircle
10
-162.49996662050094
20
-284.99999999997897
30
0
40
3.3000000000000007
210
0
220
0
230
1
0
CIRCLE
5
10A
100
AcDbEntity
8
CUTOUTS
100
AcDbCircle
10
-137.49996662050091
20
-101.00000000000006
30
0
40
3.3000000000000007
210
0
220
0
230
1
0
CIRCLE
5
10B
100
AcDbEntity
8
CUTOUTS
100
AcDbCircle
10
-162.49996662050097
20
104.99999999999994
30
0
40
3.3000000000000007
210
0
220
0
230
1
0
LWPOLYLINE
5
10C
100
AcDbEntity
8
PERIMETER
100
AcDbPolyline
90
32
70
1
43
0.0
10
108.49999999995889
20
213.00000000000006
42
0.41421356237309764
10
106.4999999999589
20
215
10
-106.49999999995886
20
214.99999999999994
42
0.41421356237309243
10
-108.49999999995887
20
212.99999999999997
10
-108.49999999995887
20
185.20710678118664
42
-0.1989123673797478
10
-109.08578643758628
20
183.79289321881305
10
-168.79289321881384
20
124.08578643762637
42
-0.19891236737956822
10
-170.20710678118644
20
123.49999999999994
10
-197.99999972830642
20
123.49999999999997
42
0.41421358510942291
10
-199.99999972830636
20
121.49999984474653
10
-199.99996689219449
20
-301.50000015523244
42
0.41421353963674928
10
-197.99996689219452
20
-303.49999999997897
10
-170.20707340168747
20
-303.49999999997897
42
-0.19891236737965801
10
-168.79285983931439
20
-304.08578643760586
10
-109.08575305810768
20
-363.79289321881345
42
-0.19891236737965962
10
-108.49996662048076
20
-365.20710678118655
10
-108.49996662048076
20
-369.49999999999994
42
0.41421356237308721
10
-106.49996662048076
20
-371.5
10
106.49996662048112
20
-371.5
42
0.41421356237307422
10
108.49996662048115
20
-369.49999999999994
10
108.49996662048108
20
-365.20710678118655
42
-0.1989123673796564
10
109.08575305810798
20
-363.79289321881345
10
168.79285983931459
20
-304.08578643760575
42
-0.19891236737965801
10
170.20707340168769
20
-303.49999999997885
10
197.99996689219481
20
-303.49999999997885
42
0.41421353963674407
10
199.99996689219478
20
-301.50000015523239
10
199.99999972830648
20
121.49999984474661
42
0.41421358510943851
10
197.99999972830648
20
123.50000000000009
10
170.20710678118655
20
123.50000000000003
42
-0.19891236737956658
10
168.79289321881396
20
124.08578643762644
10
109.08578643758631
20
183.79289321881316
42
-0.19891236737974619
10
108.49999999995893
20
185.20710678118672
0
ENDSEC
0
SECTION
2
OBJECTS
0
DICTIONARY
5
C
100
AcDbDictionary
3
ACAD_GROUP
350
D
3
ACAD_MLINESTYLE
350
17
0
DICTIONARY
5
D
100
AcDbDictionary
0
DICTIONARY
5
1A
330
C
100
AcDbDictionary
0
DICTIONARY
5
17
100
AcDbDictionary
0
ENDSEC
0
EOF
